<?xml version="1.0" encoding="UTF-8"?>
<svg version="1.1" xmlns="http://www.w3.org/2000/svg">
<path d="M0 0 C9.02685447 6.43364046 14.70917478 13.78148334 18.85546875 24.03515625 C19.41621094 25.41574219 19.41621094 25.41574219 19.98828125 26.82421875 C23.25065752 38.90382817 21.43686095 52.65134055 15.5 63.515625 C9.27067276 73.48588871 1.82731362 79.95000923 -9.64453125 82.78515625 C-20.04186931 85.15736445 -30.23905482 83.86436125 -39.65234375 78.64453125 C-41.63175877 77.21453561 -43.39150306 75.73300438 -45.14453125 74.03515625 C-45.64597656 73.56078125 -46.14742187 73.08640625 -46.6640625 72.59765625 C-50.15212789 68.89849756 -51.7562979 65.03366069 -52.14453125 60.03515625 C-51.25188923 54.28257435 -49.16302953 51.05365453 -45.14453125 47.03515625 C-41.13838137 44.65312119 -36.70383783 44.19330988 -32.14453125 45.03515625 C-29.22330263 46.37384535 -26.56482385 47.91096328 -24.14453125 50.03515625 C-24.14453125 50.69515625 -24.14453125 51.35515625 -24.14453125 52.03515625 C-20.83993623 52.88051777 -18.73237739 53.22654802 -15.45703125 52.16015625 C-12.00016713 48.98357841 -10.84836676 45.63548317 -10.14453125 41.03515625 C-10.32101248 36.29318242 -11.40739462 33.01077826 -14.26953125 29.22265625 C-20.97921011 24.11746581 -27.63154109 21.34862479 -36.14453125 22.03515625 C-44.90440921 24.40732548 -51.52292582 28.57944314 -56.16015625 36.4609375 C-61.44255554 46.54132966 -64.14926947 55.62397199 -61.42578125 67.05078125 C-56.65993595 80.81023784 -47.93987597 91.08101968 -35.14453125 98.03515625 C-19.01907121 105.25533098 -3.51907533 105.61792834 13.0703125 99.93359375 C18.72236171 97.72409154 23.39270288 95.18036894 28.125 91.39453125 C31.68409914 88.59867008 34.74961626 87.1785075 39.23046875 86.59765625 C44.62693808 87.24895427 49.03903915 89.10153764 52.79296875 93.09765625 C55.27108099 97.61656681 55.66524604 102.00977367 54.85546875 107.03515625 C51.74752692 114.25934166 46.58871271 118.34968985 39.85546875 122.03515625 C39.27442383 122.35371582 38.69337891 122.67227539 38.09472656 123.00048828 C16.86185518 134.4921721 -7.53560542 139.4980746 -31.45703125 133.47265625 C-33.70789914 132.72236695 -35.93841379 131.90830344 -38.14453125 131.03515625 C-38.79131836 130.7937793 -39.43810547 130.55240234 -40.10449219 130.30371094 C-63.22715067 121.60398851 -79.01859864 104.97274737 -89.44140625 82.92578125 C-95.76883661 68.88721495 -95.55569644 47.34387494 -90.14453125 33.03515625 C-85.99842564 23.33502902 -80.6517411 15.49880396 -73.14453125 8.03515625 C-72.31953125 7.12765625 -71.49453125 6.22015625 -70.64453125 5.28515625 C-50.67373451 -12.68856081 -22.62055871 -14.07435026 0 0 Z " fill="#355695" transform="translate(133.14453125,50.96484375)"/>
<path d="M0 0 C2.64 0 5.28 0 8 0 C10.2809196 6.10470299 12.55932049 12.21034155 14.8359375 18.31665039 C15.61139296 20.39564518 16.3874338 22.47442172 17.1640625 24.55297852 C18.27756734 27.53345032 19.38899338 30.51468996 20.5 33.49609375 C20.84998047 34.43150497 21.19996094 35.3669162 21.56054688 36.33067322 C21.88087891 37.19149002 22.20121094 38.05230682 22.53125 38.93920898 C22.81548828 39.70087875 23.09972656 40.46254852 23.39257812 41.24729919 C24 43 24 43 24 44 C21.36 44 18.72 44 16 44 C15.49384702 42.73160474 14.99530901 41.46016898 14.5 40.1875 C14.2215625 39.47980469 13.943125 38.77210938 13.65625 38.04296875 C13 36 13 36 13 33 C7.06 33 1.12 33 -5 33 C-5.474375 34.629375 -5.94875 36.25875 -6.4375 37.9375 C-7.875 42.875 -7.875 42.875 -9 44 C-11.33297433 44.04092937 -13.66705225 44.04241723 -16 44 C-11.26451023 29.10053218 -5.69933815 14.55445227 0 0 Z M3 10 C1.02 15.94 -0.96 21.88 -3 28 C1.29 28 5.58 28 10 28 C8.76281145 21.50476013 6.89324549 15.94098468 4 10 C3.67 10 3.34 10 3 10 Z " fill="#254171" transform="translate(221,99)"/>
<path d="M0 0 C3.75212276 2.01502889 5.63644095 3.45466142 8 7 C8.22705078 9.72729492 8.22705078 9.72729492 8.1953125 12.98046875 C8.18886719 14.14384766 8.18242187 15.30722656 8.17578125 16.50585938 C8.15902344 17.72080078 8.14226562 18.93574219 8.125 20.1875 C8.11597656 21.41404297 8.10695313 22.64058594 8.09765625 23.90429688 C8.07406017 26.93639295 8.04113841 29.96809938 8 33 C6.02 33 4.04 33 2 33 C1.98541748 32.39003174 1.97083496 31.78006348 1.95581055 31.15161133 C1.88105225 28.37128936 1.78448518 25.59213176 1.6875 22.8125 C1.66494141 21.85279297 1.64238281 20.89308594 1.61914062 19.90429688 C1.45293573 12.90810922 1.45293573 12.90810922 -2 7 C-5.58661035 6.48762709 -7.87803432 6.17722517 -10.875 8.375 C-12.89559869 11.29364256 -13.16822664 13.27508892 -13.31640625 16.7890625 C-13.35830078 17.73007813 -13.40019531 18.67109375 -13.44335938 19.640625 C-13.50233398 21.11789063 -13.50233398 21.11789063 -13.5625 22.625 C-13.60568359 23.61757812 -13.64886719 24.61015625 -13.69335938 25.6328125 C-13.79961069 28.08839838 -13.90164964 30.54408703 -14 33 C-16.31 33 -18.62 33 -21 33 C-21 22.44 -21 11.88 -21 1 C-19.02 1 -17.04 1 -15 1 C-15 1.66 -15 2.32 -15 3 C-14.01 2.505 -13.02 2.01 -12 1.5 C-7.72521304 -0.30491005 -4.63097151 -0.51455239 0 0 Z " fill="#254172" transform="translate(367,110)"/>
<path d="M0 0 C2.31 0 4.62 0 7 0 C7.0093457 0.67579102 7.01869141 1.35158203 7.02832031 2.04785156 C7.08207301 5.1159711 7.16570992 8.18257387 7.25 11.25 C7.26417969 12.31347656 7.27835938 13.37695312 7.29296875 14.47265625 C7.32519531 15.49746094 7.35742188 16.52226563 7.390625 17.578125 C7.41157227 18.52075195 7.43251953 19.46337891 7.45410156 20.43457031 C8.1547208 23.72710473 9.35850842 24.96706975 12 27 C15.22874787 26.93410719 17.18415665 26.59078311 19.8125 24.6875 C21.99701861 21.58318408 22.14093416 18.16310643 22.31640625 14.453125 C22.35830078 13.60878906 22.40019531 12.76445313 22.44335938 11.89453125 C22.48267578 11.02183594 22.52199219 10.14914063 22.5625 9.25 C22.60568359 8.36183594 22.64886719 7.47367187 22.69335938 6.55859375 C22.79913615 4.37254037 22.90122546 2.18637911 23 0 C24.98 0 26.96 0 29 0 C29 10.56 29 21.12 29 32 C27.02 32 25.04 32 23 32 C23 31.34 23 30.68 23 30 C22.38125 30.495 21.7625 30.99 21.125 31.5 C16.71211185 33.61818631 12.81562522 33.5712109 8 33 C4.62455533 31.70727651 3.42013662 30.60889365 1.3828125 27.65625 C-0.63810619 22.31280398 -0.31745363 17.2829812 -0.1875 11.625 C-0.17396484 10.50738281 -0.16042969 9.38976562 -0.14648438 8.23828125 C-0.11127164 5.49168789 -0.06202096 2.74609711 0 0 Z " fill="#254172" transform="translate(248,111)"/>
<path d="M0 0 C0 1.98 0 3.96 0 6 C-0.55429687 6.19335938 -1.10859375 6.38671875 -1.6796875 6.5859375 C-2.40414063 6.84632812 -3.12859375 7.10671875 -3.875 7.375 C-4.59429687 7.63023438 -5.31359375 7.88546875 -6.0546875 8.1484375 C-8.18157994 8.93877783 -8.18157994 8.93877783 -10 11 C-10.90407572 13.77021345 -11.17139535 16.42790704 -11.31640625 19.328125 C-11.35830078 20.12734375 -11.40019531 20.9265625 -11.44335938 21.75 C-11.50233398 22.9875 -11.50233398 22.9875 -11.5625 24.25 C-11.60568359 25.09046875 -11.64886719 25.9309375 -11.69335938 26.796875 C-11.79908543 28.86440671 -11.90001295 30.93218281 -12 33 C-13.98 33 -15.96 33 -18 33 C-18 22.44 -18 11.88 -18 1 C-16.02 1 -14.04 1 -12 1 C-11.67 1.66 -11.34 2.32 -11 3 C-10.113125 2.505 -9.22625 2.01 -8.3125 1.5 C-5.12413762 0.05621326 -3.41812454 -0.30159922 0 0 Z " fill="#254272" transform="translate(326,110)"/>
<path d="M0 0 C0 1.98 0 3.96 0 6 C-0.55429687 6.19335938 -1.10859375 6.38671875 -1.6796875 6.5859375 C-2.40414063 6.84632812 -3.12859375 7.10671875 -3.875 7.375 C-4.59429687 7.63023438 -5.31359375 7.88546875 -6.0546875 8.1484375 C-8.18157994 8.93877783 -8.18157994 8.93877783 -10 11 C-10.90407572 13.77021345 -11.17139535 16.42790704 -11.31640625 19.328125 C-11.35830078 20.12734375 -11.40019531 20.9265625 -11.44335938 21.75 C-11.50233398 22.9875 -11.50233398 22.9875 -11.5625 24.25 C-11.60568359 25.09046875 -11.64886719 25.9309375 -11.69335938 26.796875 C-11.79908543 28.86440671 -11.90001295 30.93218281 -12 33 C-13.98 33 -15.96 33 -18 33 C-18 22.44 -18 11.88 -18 1 C-16.02 1 -14.04 1 -12 1 C-11.67 1.66 -11.34 2.32 -11 3 C-10.113125 2.505 -9.22625 2.01 -8.3125 1.5 C-5.12413762 0.05621326 -3.41812454 -0.30159922 0 0 Z " fill="#254272" transform="translate(303,110)"/>
<path d="M0 0 C2.31 0 4.62 0 7 0 C7 10.56 7 21.12 7 32 C4.69 32 2.38 32 0 32 C0 21.44 0 10.88 0 0 Z " fill="#264273" transform="translate(331,111)"/>
<path d="M0 0 C2.31 0.33 4.62 0.66 7 1 C7 2.98 7 4.96 7 7 C4.69 7.33 2.38 7.66 0 8 C-1.125 5.6875 -1.125 5.6875 -2 3 C-1.34 2.01 -0.68 1.02 0 0 Z " fill="#23426F" transform="translate(332,97)"/>
</svg>
